inDegrees=no
num_controls=7
num_derivatives=13
num_iterations=102
num_multipliers=7
num_parameters=0
num_slacks=7
num_states=26
objective=6.166480
objective_accelerations=0.413983
objective_balance=0.073949
objective_effort=0.437596
objective_height=5.217853
objective_ligament=0.023100
solver_duration=880.026509
status=Solve_Succeeded
success=true
DataType=double
version=3
OpenSimVersion=4.4-2022-07-23-0e9fedc
endheader
time	/jointset/ground_pelvis/pelvis_tilt/value	/jointset/ground_pelvis/pelvis_tx/value	/jointset/ground_pelvis/pelvis_ty/value	/jointset/hip_r/hip_flexion_r/value	/jointset/hip_r/hip_adduction_r/value	/jointset/hip_r/hip_rotation_r/value	/jointset/back/lumbar_extension/value	/jointset/patellofemoral_r/patellar_flexion_r/value	/jointset/knee_r/knee_flexion_r/value	/jointset/knee_r/knee_adduction_r/value	/jointset/knee_r/knee_rotation_r/value	/jointset/ankle_r/ankle_angle_r/value	/jointset/subtalar_r/subtalar_angle_r/value	/jointset/ground_pelvis/pelvis_tilt/speed	/jointset/ground_pelvis/pelvis_tx/speed	/jointset/ground_pelvis/pelvis_ty/speed	/jointset/hip_r/hip_flexion_r/speed	/jointset/hip_r/hip_adduction_r/speed	/jointset/hip_r/hip_rotation_r/speed	/jointset/back/lumbar_extension/speed	/jointset/patellofemoral_r/patellar_flexion_r/speed	/jointset/knee_r/knee_flexion_r/speed	/jointset/knee_r/knee_adduction_r/speed	/jointset/knee_r/knee_rotation_r/speed	/jointset/ankle_r/ankle_angle_r/speed	/jointset/subtalar_r/subtalar_angle_r/speed	/forceset/tau_hip_flexion_r	/forceset/tau_hip_adduction_r	/forceset/tau_hip_rotation_r	/forceset/tau_knee_flexion_r	/forceset/tau_ankle_angle_r	/forceset/tau_subtalar_angle_r	/forceset/tau_lumbar_extension	lambda_cid13_p0	lambda_cid14_p0	lambda_cid14_p1	lambda_cid14_p2	lambda_cid14_p3	lambda_cid14_p4	lambda_cid14_p5	/jointset/ground_pelvis/pelvis_tilt/accel	/jointset/ground_pelvis/pelvis_tx/accel	/jointset/ground_pelvis/pelvis_ty/accel	/jointset/hip_r/hip_flexion_r/accel	/jointset/hip_r/hip_adduction_r/accel	/jointset/hip_r/hip_rotation_r/accel	/jointset/back/lumbar_extension/accel	/jointset/patellofemoral_r/patellar_flexion_r/accel	/jointset/knee_r/knee_flexion_r/accel	/jointset/knee_r/knee_adduction_r/accel	/jointset/knee_r/knee_rotation_r/accel	/jointset/ankle_r/ankle_angle_r/accel	/jointset/subtalar_r/subtalar_angle_r/accel	gamma_cid13_p0	gamma_cid14_p0	gamma_cid14_p1	gamma_cid14_p2	gamma_cid14_p3	gamma_cid14_p4	gamma_cid14_p5
0	-0.006516570921271021	0.09626115310403219	0.9427240419048184	0.1762555651711513	-0.2321525895595392	-0.2616402483126654	-0.0385979564078546	0.07317816487767427	0.07317816487761825	0.1745326387674475	0.1745323867521648	0.0324735960626065	-0.003451684495323745	0	0	0	0	0	0	0	0	0	0	0	0	0	0.2339279151457847	-0.1178017409183992	-0.05021461615355187	-0.4410375996731589	0.4788520403178266	-0.2058777026398586	-0.1244497370906553	-39.07633474193373	102.007069719301	-61.54832273273811	-1.154136796224075	-54.57353800916022	-679.984601885332	14.8056653671024	-1.428934723193418	-0.5540856920232339	-0.5024799832739838	7.226823073364788	0.05992706719286956	2.357148433841935	-4.638925431472204	8.554212271190289	8.554212271205342	-2.424305192579151	0.1270476714551561	3.503534303629902	0.8515040378506566	8.109881964461477e-08	3.710718417141254e-08	-5.82707098237185e-07	1.6687232701066e-07	3.082495115925781e-08	8.311267836248901e-09	-2.888556142178491e-07
0.01	-0.006582983420411213	0.09623511718291401	0.9426999366555602	0.1766035779691742	-0.2321486235822366	-0.2615145483715472	-0.03883116908845112	0.07359375284339653	0.07359375284337479	0.1744118516156987	0.174527547183786	0.03264633615381451	-0.003408743479834523	-0.01326676999078048	-0.005065892079602243	-0.004808911328062761	0.06919440871121982	0.0007436302487172462	0.02500688422549222	-0.04627903055222635	0.08276711474711031	0.08276711474716469	-0.02394544649242924	-0.0009335380937807048	0.03453248842947373	0.008534068360633378	0.232863094022868	-0.1731894053000719	-0.04965615978768986	-0.4430015709332716	0.4717430093330335	-0.1550832208777097	-0.122946722939954	-39.09016814116424	101.6732957017132	-39.82256947077956	-4.302730632330362	-56.70672405270695	-680.6263448903511	58.55305353475595	-1.273185773855341	-0.4616409792109434	-0.4682742668843164	6.704529721415732	0.07408624401722338	2.55253495171749	-4.56786603151382	8.085373103038416	8.085373103037538	-2.347940634207162	-0.1983476069889614	3.425790292281052	0.8461655682946281	1.099050916928514e-07	3.642088947625839e-08	-7.925883153818093e-07	1.832418696644491e-07	6.058154897597227e-08	-1.280118652975582e-07	-3.74734557116823e-07
0.02	-0.006781591146811112	0.0961626623383449	0.9426281067811497	0.1776312908445947	-0.2321387202543827	-0.2611427642811271	-0.03951626690745148	0.07482649436156429	0.0748264943615855	0.1740579547477211	0.1745144136235426	0.03316393796526861	-0.003282100314113416	-0.02643904545461558	-0.009283784690183124	-0.009544925030455441	0.1359400154791752	0.001187470109685181	0.04921682984343972	-0.09037702768108216	0.1634307105568608	0.1634307105568941	-0.04662194325005566	-0.001658798475278263	0.06897234404591088	0.01674043004621957	0.2317982728993953	-0.2285770696817768	-0.04909770341989485	-0.4449655421945203	0.4646339783478514	-0.10428873911571	-0.1214437087892641	-39.13107748398695	101.4151687574494	-18.09793951011455	-7.434732780935654	-59.04810309155405	-680.1525884133684	102.1012892780892	-1.410035817804213	-0.3844857982189149	-0.487900458140021	6.737062684711565	-3.101035786872482e-05	2.197760712330446	-4.20271874679783	8.133508483718616	8.133508483718595	-2.170515245616669	0.16870321391456	3.485007741022336	0.7859627028402548	1.38711363741088e-07	3.573459478110423e-08	-1.002469532526434e-06	1.996114123182382e-07	9.033814679268673e-08	-2.643349984313652e-07	-4.606135000157969e-07
0.03	-0.007110813216983303	0.09605007069179097	0.9425090766987159	0.1793164403421484	-0.2321255521989539	-0.2605354769787302	-0.0406322759830612	0.07685607788829069	0.07685607788845306	0.1734831739532516	0.174497381286271	0.03402297082463989	-0.003075215793330141	-0.03929954599387423	-0.0133114626868855	-0.01426457924565489	0.2008483513946524	0.001423291987205019	0.07210576103106842	-0.1325705054493154	0.2421233963551919	0.242123396355154	-0.06815857456224673	-0.001751355165497753	0.1025488584606835	0.02454935025379419	0.2221329477390633	-0.2047592176064529	-0.04641839499397925	-0.4290205807193482	0.4434052968271405	-0.1166633046724421	-0.1143772863618115	-39.19806249303036	94.11767975912969	-24.70221938577405	-6.436350577414087	-52.98909517537088	-679.6101891214527	87.19948948498235	-1.208171942279068	-0.4234283224361441	-0.4645744894912148	6.331495266280484	0.03185403114070709	2.314285494670266	-4.189519992438847	7.682731005010107	7.682731005000043	-2.119025717764758	-0.09871670982041901	3.251192573923288	0.7651529255082403	1.544105211387285e-07	3.510065694515343e-08	-1.116256874742093e-06	1.896205727895619e-07	1.048327782457068e-07	-3.608113689923521e-07	-4.862470971971774e-07
0.04	-0.007565463246596808	0.09589489836086335	0.9423427347568659	0.1816434284430246	-0.2321107328758681	-0.2597033351297615	-0.04216259137649379	0.07966170474840949	0.07966170474841661	0.1726982691163918	0.1744793270618337	0.03520921268461565	-0.002792882821313031	-0.05152463734452423	-0.01779992156492048	-0.01900729691370835	0.2643077361628345	0.001517723638109504	0.09418773912629555	-0.1732382912416538	0.318639377238276	0.318639377238172	-0.08864675162413652	-0.001863175828862714	0.1344141441641649	0.03183012029302097	0.2124676225773673	-0.180941365531209	-0.0437390865692089	-0.4130756192450815	0.4221766153059879	-0.1290378702293376	-0.1073108639350261	-39.28987223114859	86.89035727702883	-31.32222612474229	-5.403464210944741	-47.1174093321151	-678.0157084160375	72.08230528779315	-1.28295398008224	-0.4766419744854173	-0.4925131487108635	6.447272455252332	-0.02830905568166529	2.036370093848266	-3.897580351618602	7.698167500669419	7.698167500670436	-1.960824395554883	0.1648504192875218	3.142761998763859	0.6803326691699013	1.698394287497588e-07	3.44677986320728e-08	-1.228062899948908e-06	1.790862202261955e-07	1.190127299798878e-07	-4.564661568198788e-07	-5.106385223019064e-07
0.05	-0.008139969005514136	0.09569338917788217	0.9421286778442083	0.1845978290397356	-0.2320958329277433	-0.2586556075200999	-0.04409128197871651	0.08322230801396083	0.08322230801401599	0.171714155139561	0.1744613160609546	0.03670674020002937	-0.002440245858959845	-0.06330899415020945	-0.02249205626682132	-0.02381705219688132	0.3262696237258833	0.001443852958314615	0.115218217729374	-0.2122188069267919	0.3931206583560681	0.3931206583560586	-0.107994602234026	-0.00174940355742775	0.1649125363626407	0.03864070676650619	0.2057753786236577	-0.174541410592273	-0.04180652936197465	-0.4047713471654298	0.4094653306182222	-0.1285501050184083	-0.1021297316800008	-39.40496487435848	82.88569245875615	-31.88129063517173	-5.234705110525769	-44.47999544621121	-677.0766984329115	69.6267711720574	-1.116031767396106	-0.4639964862328111	-0.4772437712600795	6.025240364875251	0.000171556916850803	2.115510720323914	-3.856133835087699	7.26898169838799	7.268981698401748	-1.894722517689899	-0.06684020981468501	2.976586845846585	0.6727635460019145	1.658102388759175e-07	2.932142218997683e-08	-1.189037695355624e-06	1.695518137914203e-07	1.222380941533584e-07	-5.212455065503981e-07	-5.014356600817639e-07
0.06	-0.008830289379800732	0.09544525919424467	0.941866115968085	0.1881627672036388	-0.232082252160186	-0.2574017503289934	-0.04640134706943122	0.08751689874685985	0.08751689874686125	0.170541971231679	0.1744441466144176	0.03850389344052626	-0.002021234649962246	-0.07468756041908763	-0.02712408169618402	-0.0287082896068027	0.3864152496107456	0.00125388752032105	0.1354136554038777	-0.2495131889369794	0.4654368707159973	0.4654368707160759	-0.1262607378032258	-0.00169486492140823	0.194339289179382	0.04510496962252733	0.1990831346692687	-0.1681414556533458	-0.039873972155018	-0.3964670750862505	0.3967540459302573	-0.1280623398075276	-0.09694859942533721	-39.54148315856793	78.94451162924091	-32.44802274682561	-5.043268153112666	-42.0134416621848	-675.1931353466493	66.98833870045235	-1.201795872720556	-0.4646201199777872	-0.5088095740605864	6.08402011961487	-0.05152800732205894	1.869361908131913	-3.560353616628246	7.26515374909697	7.26515374909671	-1.744481387415554	0.1530036922060161	2.928434122416733	0.6110679456763524	1.609617606869237e-07	2.398500287929075e-08	-1.143661702139177e-06	1.600595103515332e-07	1.250022125347991e-07	-5.847248378347276e-07	-4.908183015532057e-07
